<svg xmlns="http://www.w3.org/2000/svg" viewBox="0 -10 1378 510"><g transform="translate(0,0)">
 <polygon points="28,140.5 358,318 28,495.5" fill="#1C3E6E"/>
 <polygon points="112,77.5 442,255 112,432.5" fill="#2E7FC1" fill-opacity="0.80"/>
 <polygon points="196,14.5 526,192 196,369.5" fill="#00A78B" fill-opacity="0.86"/>
 <circle cx="568" cy="186" r="33" fill="none" stroke="#00A78B" stroke-width="11"/>
 <circle cx="568" cy="186" r="13" fill="#00A78B"/>
</g><path d="M709.9 89.4V300.0H658.6V89.4Z" fill="#00A78B"/><path d="M904.6 89.4V130.5H848.8V300.0H797.5V130.5H741.7V89.4Z" fill="#00A78B"/><path d="M1118.8 89.4V300.0H1067.5V213.3H987.6999999999999V300.0H936.4V89.4H987.6999999999999V171.9H1067.5V89.4Z" fill="#16335E"/><path d="M1269.1 300.0 1225.3 220.5H1213.0V300.0H1161.6999999999998V89.4H1247.8Q1272.6999999999998 89.4 1290.25 98.10000000000001Q1307.8 106.80000000000001 1316.5 121.95Q1325.1999999999998 137.1 1325.1999999999998 155.70000000000002Q1325.1999999999998 176.7 1313.35 193.2Q1301.5 209.7 1278.3999999999999 216.60000000000002L1327.0 300.0ZM1213.0 184.2H1244.8Q1258.8999999999999 184.2 1265.9499999999998 177.3Q1273.0 170.4 1273.0 157.8Q1273.0 145.8 1265.9499999999998 138.9Q1258.8999999999999 132.0 1244.8 132.0H1213.0Z" fill="#16335E"/><path d="M684.824 367.18V374.248H670.764V420.0H662.1V374.248H647.964V367.18Z" fill="#00A78B"/><path d="M713.7221818181819 374.172V389.676H731.9621818181819V396.744H713.7221818181819V412.932H734.2421818181818V420.0H705.0581818181819V367.104H734.2421818181818V374.172Z" fill="#00A78B"/><path d="M780.4683636363636 366.496Q788.9043636363635 366.496 795.4783636363636 370.638Q802.0523636363636 374.78 805.0163636363636 382.38H794.6043636363636Q792.5523636363636 378.2 788.9043636363635 376.148Q785.2563636363636 374.096 780.4683636363636 374.096Q775.2243636363636 374.096 771.1203636363637 376.452Q767.0163636363636 378.808 764.6983636363636 383.216Q762.3803636363635 387.624 762.3803636363635 393.476Q762.3803636363635 399.328 764.6983636363636 403.736Q767.0163636363636 408.144 771.1203636363637 410.538Q775.2243636363636 412.932 780.4683636363636 412.932Q785.2563636363636 412.932 788.9043636363635 410.88Q792.5523636363636 408.828 794.6043636363636 404.648H805.0163636363636Q802.0523636363636 412.248 795.4783636363636 416.352Q788.9043636363635 420.456 780.4683636363636 420.456Q773.0203636363636 420.456 766.8643636363636 416.99800000000005Q760.7083636363636 413.54 757.0983636363636 407.384Q753.4883636363636 401.228 753.4883636363636 393.476Q753.4883636363636 385.724 757.0983636363636 379.568Q760.7083636363636 373.412 766.9023636363636 369.95399999999995Q773.0963636363635 366.496 780.4683636363636 366.496Z" fill="#00A78B"/><path d="M868.7985454545454 367.18V420.0H860.1345454545454V396.896H835.2825454545455V420.0H826.6185454545455V367.18H835.2825454545455V389.828H860.1345454545454V367.18Z" fill="#149DA0"/><path d="M935.0887272727273 420.0H926.4247272727273L900.3567272727273 380.556V420.0H891.6927272727273V367.104H900.3567272727273L926.4247272727273 406.472V367.104H935.0887272727273Z" fill="#2E7FC1"/><path d="M955.094909090909 393.476Q955.094909090909 385.724 958.704909090909 379.568Q962.314909090909 373.412 968.508909090909 369.95399999999995Q974.702909090909 366.496 982.074909090909 366.496Q989.522909090909 366.496 995.716909090909 369.95399999999995Q1001.9109090909091 373.412 1005.4829090909091 379.568Q1009.0549090909091 385.724 1009.0549090909091 393.476Q1009.0549090909091 401.228 1005.4829090909091 407.422Q1001.9109090909091 413.616 995.716909090909 417.07399999999996Q989.522909090909 420.532 982.074909090909 420.532Q974.702909090909 420.532 968.508909090909 417.07399999999996Q962.314909090909 413.616 958.704909090909 407.422Q955.094909090909 401.228 955.094909090909 393.476ZM1000.162909090909 393.476Q1000.162909090909 387.624 997.844909090909 383.216Q995.526909090909 378.808 991.4229090909091 376.452Q987.3189090909091 374.096 982.074909090909 374.096Q976.830909090909 374.096 972.726909090909 376.452Q968.622909090909 378.808 966.304909090909 383.216Q963.986909090909 387.624 963.986909090909 393.476Q963.986909090909 399.328 966.304909090909 403.774Q968.622909090909 408.22 972.726909090909 410.61400000000003Q976.830909090909 413.008 982.074909090909 413.008Q987.3189090909091 413.008 991.4229090909091 410.61400000000003Q995.526909090909 408.22 997.844909090909 403.774Q1000.162909090909 399.328 1000.162909090909 393.476Z" fill="#2E7FC1"/><path d="M1037.7250909090908 413.008H1055.5850909090907V420.0H1029.0610909090908V367.18H1037.7250909090908Z" fill="#3FA9E0"/><path d="M1071.4112727272725 393.476Q1071.4112727272725 385.724 1075.0212727272724 379.568Q1078.6312727272725 373.412 1084.8252727272725 369.95399999999995Q1091.0192727272727 366.496 1098.3912727272725 366.496Q1105.8392727272726 366.496 1112.0332727272726 369.95399999999995Q1118.2272727272725 373.412 1121.7992727272726 379.568Q1125.3712727272725 385.724 1125.3712727272725 393.476Q1125.3712727272725 401.228 1121.7992727272726 407.422Q1118.2272727272725 413.616 1112.0332727272726 417.07399999999996Q1105.8392727272726 420.532 1098.3912727272725 420.532Q1091.0192727272727 420.532 1084.8252727272725 417.07399999999996Q1078.6312727272725 413.616 1075.0212727272724 407.422Q1071.4112727272725 401.228 1071.4112727272725 393.476ZM1116.4792727272725 393.476Q1116.4792727272725 387.624 1114.1612727272725 383.216Q1111.8432727272725 378.808 1107.7392727272727 376.452Q1103.6352727272726 374.096 1098.3912727272725 374.096Q1093.1472727272726 374.096 1089.0432727272726 376.452Q1084.9392727272725 378.808 1082.6212727272725 383.216Q1080.3032727272725 387.624 1080.3032727272725 393.476Q1080.3032727272725 399.328 1082.6212727272725 403.774Q1084.9392727272725 408.22 1089.0432727272726 410.61400000000003Q1093.1472727272726 413.008 1098.3912727272725 413.008Q1103.6352727272726 413.008 1107.7392727272727 410.61400000000003Q1111.8432727272725 408.22 1114.1612727272725 403.774Q1116.4792727272725 399.328 1116.4792727272725 393.476Z" fill="#3FA9E0"/><path d="M1183.6054545454544 382.38Q1181.5534545454543 378.428 1177.9054545454542 376.414Q1174.2574545454543 374.4 1169.4694545454543 374.4Q1164.2254545454543 374.4 1160.1214545454543 376.756Q1156.0174545454543 379.112 1153.6994545454543 383.444Q1151.3814545454543 387.776 1151.3814545454543 393.476Q1151.3814545454543 399.176 1153.6994545454543 403.546Q1156.0174545454543 407.916 1160.1214545454543 410.272Q1164.2254545454543 412.628 1169.4694545454543 412.628Q1176.5374545454542 412.628 1180.9454545454541 408.676Q1185.3534545454543 404.724 1186.3414545454543 397.96H1166.5054545454543V391.044H1195.6134545454543V397.808Q1194.7774545454542 403.964 1191.2434545454544 409.132Q1187.7094545454543 414.3 1182.0474545454545 417.37800000000004Q1176.3854545454544 420.456 1169.4694545454543 420.456Q1162.0214545454544 420.456 1155.8654545454542 416.99800000000005Q1149.7094545454543 413.54 1146.0994545454541 407.384Q1142.4894545454542 401.228 1142.4894545454542 393.476Q1142.4894545454542 385.724 1146.0994545454541 379.568Q1149.7094545454543 373.412 1155.9034545454542 369.95399999999995Q1162.0974545454544 366.496 1169.4694545454543 366.496Q1177.9054545454544 366.496 1184.4794545454542 370.638Q1191.0534545454543 374.78 1194.0174545454543 382.38Z" fill="#3E97D6"/><path d="M1224.283636363636 367.18V420.0H1215.6196363636361V367.18Z" fill="#16335E"/><path d="M1255.8418181818179 374.172V389.676H1274.0818181818179V396.744H1255.8418181818179V412.932H1276.3618181818179V420.0H1247.1778181818179V367.104H1276.3618181818179V374.172Z" fill="#16335E"/><path d="M1297.2039999999995 405.408H1306.4759999999997Q1306.7799999999995 408.828 1309.1739999999995 411.032Q1311.5679999999995 413.236 1315.8999999999996 413.236Q1320.3839999999996 413.236 1322.8919999999996 411.07Q1325.3999999999996 408.904 1325.3999999999996 405.484Q1325.3999999999996 402.824 1323.8419999999996 401.15200000000004Q1322.2839999999997 399.48 1319.9659999999997 398.568Q1317.6479999999997 397.656 1313.5439999999996 396.592Q1308.3759999999995 395.224 1305.1459999999995 393.818Q1301.9159999999995 392.412 1299.6359999999995 389.448Q1297.3559999999995 386.484 1297.3559999999995 381.544Q1297.3559999999995 376.984 1299.6359999999995 373.56399999999996Q1301.9159999999995 370.144 1306.0199999999995 368.32Q1310.1239999999996 366.496 1315.5199999999995 366.496Q1323.1959999999997 366.496 1328.0979999999995 370.334Q1332.9999999999995 374.172 1333.5319999999997 380.86H1323.9559999999997Q1323.7279999999996 377.972 1321.2199999999996 375.91999999999996Q1318.7119999999995 373.868 1314.6079999999995 373.868Q1310.8839999999996 373.868 1308.5279999999996 375.76800000000003Q1306.1719999999996 377.668 1306.1719999999996 381.24Q1306.1719999999996 383.672 1307.6539999999995 385.23Q1309.1359999999995 386.788 1311.4159999999997 387.70000000000005Q1313.6959999999997 388.612 1317.6479999999997 389.676Q1322.8919999999996 391.12 1326.1979999999996 392.56399999999996Q1329.5039999999997 394.008 1331.8219999999997 397.01Q1334.1399999999996 400.012 1334.1399999999996 405.028Q1334.1399999999996 409.056 1331.9739999999997 412.628Q1329.8079999999995 416.2 1325.6659999999997 418.366Q1321.5239999999997 420.532 1315.8999999999996 420.532Q1310.5799999999997 420.532 1306.3239999999996 418.66999999999996Q1302.0679999999995 416.808 1299.6359999999995 413.38800000000003Q1297.2039999999995 409.968 1297.2039999999995 405.408Z" fill="#16335E"/></svg>